<svg width="37" height="47" viewBox="0 0 37 47" fill="none" xmlns="http://www.w3.org/2000/svg">
<path d="M12.196 24.88L12.1448 23.8813L11.1696 23.9313L11.1964 24.9074L12.196 24.88ZM12.708 43.568L11.7084 43.5954L11.7357 44.5918L12.7322 44.5677L12.708 43.568ZM31.204 43.12L31.2282 44.1197L32.0079 44.1008L32.1795 43.34L31.204 43.12ZM33.124 34.608L33.373 33.6395L32.3752 33.3829L32.1485 34.388L33.124 34.608ZM35.364 35.184L36.3635 35.1518L36.3393 34.4023L35.613 34.2155L35.364 35.184ZM35.62 43.12L34.6205 43.1522L34.622 43.1994L34.628 43.2463L35.62 43.12ZM36.068 46.64L35.9856 47.6366L37.2158 47.7383L37.06 46.5137L36.068 46.64ZM28.324 46L28.4064 45.0034L28.3653 45H28.324V46ZM9.508 46V45H9.47155L9.4352 45.0027L9.508 46ZM0.74 46.64L-0.258371 46.583L-0.323361 47.7203L0.812799 47.6373L0.74 46.64ZM0.868 44.4L0.569725 43.4455L-0.0908862 43.652L-0.130371 44.343L0.868 44.4ZM5.988 42.8L6.28628 43.7545L6.96434 43.5426L6.98747 42.8326L5.988 42.8ZM6.628 23.152L7.62747 23.1846L7.62856 23.1512L7.62742 23.1179L6.628 23.152ZM5.988 4.4L6.98742 4.36589L6.96284 3.64587L6.27209 3.4412L5.988 4.4ZM0.804 2.864L-0.185949 2.72258L-0.308076 3.57747L0.519912 3.8228L0.804 2.864ZM1.124 0.623997L1.19525 -0.373462L0.265825 -0.439849L0.134051 0.482576L1.124 0.623997ZM9.188 1.2L9.11675 2.19746L9.15233 2.2H9.188V1.2ZM27.62 1.2V2.2H27.6714L27.7225 2.19472L27.62 1.2ZM33.828 0.559998L34.8116 0.740649L35.0526 -0.571546L33.7255 -0.43473L33.828 0.559998ZM33.252 3.696L32.2685 3.51535L32.2534 3.59736L32.2521 3.68073L33.252 3.696ZM33.124 12.08L33.3409 13.0562L34.1118 12.8849L34.1239 12.0953L33.124 12.08ZM30.82 12.592L29.8386 12.7839L30.0354 13.7907L31.0369 13.5682L30.82 12.592ZM29.156 4.08L30.1374 3.88814L29.9844 3.1053L29.1871 3.08048L29.156 4.08ZM12.708 3.568L12.7391 2.56848L11.7369 2.53728L11.7084 3.53954L12.708 3.568ZM12.196 21.552L11.1964 21.5235L11.1662 22.5842L12.2268 22.5515L12.196 21.552ZM24.676 21.168L24.7068 22.1675L25.5008 22.1431L25.6566 21.3641L24.676 21.168ZM25.892 15.088L26.2011 14.137L25.1319 13.7895L24.9114 14.8919L25.892 15.088ZM28.452 15.92L29.4482 16.0074L29.5177 15.2149L28.7611 14.969L28.452 15.92ZM27.812 23.216L26.8158 23.1286L26.8084 23.2135L26.8154 23.2984L27.812 23.216ZM28.452 30.96L28.3037 31.9489L29.5526 32.1363L29.4486 30.8776L28.452 30.96ZM25.892 30.576L24.9099 30.7645L25.0434 31.4599L25.7437 31.5649L25.892 30.576ZM24.676 24.24L25.6581 24.0515L25.494 23.1967L24.6248 23.2413L24.676 24.24ZM11.1964 24.9074L11.7084 43.5954L13.7076 43.5406L13.1956 24.8526L11.1964 24.9074ZM12.7322 44.5677L31.2282 44.1197L31.1798 42.1203L12.6838 42.5683L12.7322 44.5677ZM32.1795 43.34L34.0995 34.828L32.1485 34.388L30.2285 42.9L32.1795 43.34ZM32.875 35.5765L35.115 36.1525L35.613 34.2155L33.373 33.6395L32.875 35.5765ZM34.3645 35.2162L34.6205 43.1522L36.6195 43.0878L36.3635 35.1518L34.3645 35.2162ZM34.628 43.2463L35.076 46.7663L37.06 46.5137L36.612 42.9937L34.628 43.2463ZM36.1504 45.6434L28.4064 45.0034L28.2416 46.9966L35.9856 47.6366L36.1504 45.6434ZM28.324 45H9.508V47H28.324V45ZM9.4352 45.0027L0.667201 45.6427L0.812799 47.6373L9.5808 46.9973L9.4352 45.0027ZM1.73837 46.697L1.86637 44.457L-0.130371 44.343L-0.258371 46.583L1.73837 46.697ZM1.16628 45.3545L6.28628 43.7545L5.68973 41.8455L0.569725 43.4455L1.16628 45.3545ZM6.98747 42.8326L7.62747 23.1846L5.62853 23.1194L4.98853 42.7674L6.98747 42.8326ZM7.62742 23.1179L6.98742 4.36589L4.98858 4.43411L5.62858 23.1861L7.62742 23.1179ZM6.27209 3.4412L1.08809 1.9052L0.519912 3.8228L5.70391 5.3588L6.27209 3.4412ZM1.79395 3.00542L2.11395 0.765418L0.134051 0.482576L-0.185949 2.72258L1.79395 3.00542ZM1.05275 1.62146L9.11675 2.19746L9.25925 0.202538L1.19525 -0.373462L1.05275 1.62146ZM9.188 2.2H27.62V0.199997H9.188V2.2ZM27.7225 2.19472L33.9306 1.55473L33.7255 -0.43473L27.5175 0.205269L27.7225 2.19472ZM32.8445 0.379346L32.2685 3.51535L34.2355 3.87665L34.8116 0.740649L32.8445 0.379346ZM32.2521 3.68073L32.1241 12.0647L34.1239 12.0953L34.2519 3.71126L32.2521 3.68073ZM32.9071 11.1038L30.6031 11.6158L31.0369 13.5682L33.3409 13.0562L32.9071 11.1038ZM31.8014 12.4001L30.1374 3.88814L28.1746 4.27185L29.8386 12.7839L31.8014 12.4001ZM29.1871 3.08048L12.7391 2.56848L12.6769 4.56751L29.1249 5.07951L29.1871 3.08048ZM11.7084 3.53954L11.1964 21.5235L13.1956 21.5805L13.7076 3.59646L11.7084 3.53954ZM12.2268 22.5515L24.7068 22.1675L24.6452 20.1685L12.1652 20.5525L12.2268 22.5515ZM25.6566 21.3641L26.8726 15.2841L24.9114 14.8919L23.6954 20.9719L25.6566 21.3641ZM25.5829 16.039L28.1429 16.871L28.7611 14.969L26.2011 14.137L25.5829 16.039ZM27.4558 15.8326L26.8158 23.1286L28.8082 23.3034L29.4482 16.0074L27.4558 15.8326ZM26.8154 23.2984L27.4554 31.0424L29.4486 30.8776L28.8086 23.1336L26.8154 23.2984ZM28.6003 29.9711L26.0403 29.5871L25.7437 31.5649L28.3037 31.9489L28.6003 29.9711ZM26.8741 30.3875L25.6581 24.0515L23.6939 24.4285L24.9099 30.7645L26.8741 30.3875ZM24.6248 23.2413L12.1448 23.8813L12.2472 25.8787L24.7272 25.2387L24.6248 23.2413Z" fill="#00AC96"/>
</svg>
